<?xml version="1.0" standalone="no"?>
<!DOCTYPE svg PUBLIC "-//W3C//DTD SVG 20010904//EN"
 "http://www.w3.org/TR/2001/REC-SVG-20010904/DTD/svg10.dtd">
<svg version="1.0" xmlns="http://www.w3.org/2000/svg"
 width="700.000000pt" height="700.000000pt" viewBox="0 0 700.000000 700.000000"
 preserveAspectRatio="xMidYMid meet">
<metadata>
Created by potrace 1.14, written by Peter Selinger 2001-2017
</metadata>
<g transform="translate(0.000000,700.000000) scale(0.100000,-0.100000)"
fill="#000000" stroke="none">
<path d="M3315 6913 c-479 -29 -925 -148 -1344 -358 -893 -447 -1543 -1257
-1787 -2226 -166 -660 -126 -1378 113 -2024 106 -286 333 -691 518 -920 342
-425 735 -739 1218 -969 471 -226 934 -330 1467 -330 332 0 624 39 911 119
1100 310 1978 1145 2334 2220 117 355 169 688 169 1080 -1 246 -9 347 -45 563
-155 928 -691 1754 -1479 2279 -282 188 -614 342 -940 437 -357 103 -778 151
-1135 129z m321 -2824 l519 -931 3 931 2 931 375 0 375 0 0 -1635 0 -1635
-396 2 -396 3 -627 1133 -626 1132 -3 -1135 -2 -1135 -375 0 -375 0 0 1635 0
1635 504 0 504 0 518 -931z"/>
</g>
</svg>
