<?xml version="1.0" standalone="no"?>
<!DOCTYPE svg PUBLIC "-//W3C//DTD SVG 20010904//EN"
 "http://www.w3.org/TR/2001/REC-SVG-20010904/DTD/svg10.dtd">
<svg version="1.0" xmlns="http://www.w3.org/2000/svg"
 width="512.000000pt" height="512.000000pt" viewBox="0 0 512.000000 512.000000"
 preserveAspectRatio="xMidYMid meet">
<metadata>
Created by potrace 1.14, written by Peter Selinger 2001-2017
</metadata>
<g transform="translate(0.000000,512.000000) scale(0.100000,-0.100000)"
fill="#000000" stroke="none">
<path d="M2338 5084 c-2 -1 -30 -6 -63 -9 -94 -10 -246 -37 -320 -56 -22 -6
-47 -13 -57 -14 -25 -5 -254 -83 -296 -100 -119 -51 -340 -169 -436 -233 -425
-283 -744 -669 -949 -1149 -76 -178 -150 -471 -174 -688 -10 -92 -10 -450 0
-545 76 -735 493 -1424 1112 -1835 117 -78 125 -83 290 -165 177 -87 419 -175
540 -196 16 -2 37 -7 45 -9 33 -10 199 -37 265 -43 98 -9 434 -9 529 1 88 8
237 33 285 47 17 5 31 7 31 4 0 -3 8 0 18 5 9 5 31 11 47 14 75 11 321 104
459 171 285 140 478 279 708 511 388 391 651 949 705 1493 10 102 10 460 0
542 -15 121 -29 205 -49 290 -11 47 -21 93 -23 102 -17 80 -110 323 -175 453
-65 132 -178 321 -235 394 -276 349 -561 585 -910 756 -176 86 -239 111 -395
158 -247 75 -461 105 -752 105 -108 0 -198 -2 -200 -4z m-396 -774 c2 -3 78
-153 169 -335 212 -420 431 -852 949 -1870 81 -159 194 -382 251 -495 l104
-205 5 1455 5 1455 215 0 c118 1 220 0 225 -2 15 -5 14 -3661 -2 -3671 -14 -9
-517 -7 -531 2 -6 3 -38 61 -72 129 -65 128 -209 408 -365 712 -117 228 -258
504 -415 810 -67 132 -162 317 -210 410 -48 94 -129 251 -180 350 -51 99 -99
194 -107 210 -8 17 -21 41 -28 55 -8 14 -67 129 -132 257 l-118 232 -3 -1584
c-1 -1044 -5 -1585 -12 -1586 -6 0 -102 -1 -215 -1 -113 0 -211 1 -218 1 -9 1
-12 374 -12 1834 -1 1007 2 1834 6 1837 9 6 687 6 691 0z"/>
</g>
</svg>
